<svg xmlns="http://www.w3.org/2000/svg" width="75.736" height="29.949" viewBox="0 0 75.736 29.949">
  <path id="Path_6" data-name="Path 6" d="M26.091-50.4v17.691c0,6.234-3.454,8.93-8.087,8.93s-8.087-2.7-8.087-8.93V-50.4H6.336v17.86c0,8.13,5.055,12.089,11.668,12.089S29.672-24.411,29.672-32.54V-50.4Zm21.1,5.855c-6.908,0-11.836,5.1-11.836,12.131,0,7.077,5.013,11.963,11.878,11.963A11.255,11.255,0,0,0,58.23-27.78H54.608a7.693,7.693,0,0,1-7.245,4.044c-4.676,0-8.087-2.906-8.424-7.708h19.84C59.073-39.069,54.4-44.545,47.194-44.545Zm0,3.286a7.642,7.642,0,0,1,7.793,6.529H39.107A7.992,7.992,0,0,1,47.194-41.259ZM82.072-20.914,73.647-32.793l8-11.289H77.4l-5.855,8.635L65.6-44.082H61.39l7.961,11.247L60.926-20.914h4.212l6.318-9.225,6.4,9.225Z" transform="translate(-6.336 50.4)" fill="#ffc700"/>
</svg>
